<mxfile host="app.diagrams.net" modified="2024-04-14T13:43:03.909Z" agent="Mozilla/5.0 (Windows NT 10.0; Win64; x64) AppleWebKit/537.36 (KHTML, like Gecko) Chrome/123.0.0.0 Safari/537.36" etag="lckwETHJMEDMjHd0J7bg" version="24.2.1" type="device">
  <diagram name="Page-1" id="ZjJ6rUxtY7kgPxrVI3Gp">
    <mxGraphModel dx="1050" dy="625" grid="1" gridSize="10" guides="1" tooltips="1" connect="1" arrows="1" fold="1" page="1" pageScale="1" pageWidth="1100" pageHeight="850" math="0" shadow="0">
      <root>
        <mxCell id="0" />
        <mxCell id="1" parent="0" />
        <mxCell id="OTFyuBFAIsrNicnEkzx7-14" value="ASN65500" style="rounded=1;whiteSpace=wrap;html=1;fillColor=none;dashed=1;arcSize=5;labelPosition=center;verticalLabelPosition=top;align=center;verticalAlign=bottom;" vertex="1" parent="1">
          <mxGeometry x="240" y="140" width="400" height="300" as="geometry" />
        </mxCell>
        <mxCell id="_DbBz5vXwKekXFDE-kG2-19" value="AS65002" style="rounded=1;whiteSpace=wrap;html=1;fillColor=#dae8fc;strokeColor=none;labelPosition=left;verticalLabelPosition=middle;align=right;verticalAlign=middle;textDirection=vertical-lr;" parent="1" vertex="1">
          <mxGeometry x="501.5" y="320" width="119" height="90" as="geometry" />
        </mxCell>
        <mxCell id="_DbBz5vXwKekXFDE-kG2-18" value="AS65001" style="rounded=1;whiteSpace=wrap;html=1;fillColor=#dae8fc;strokeColor=none;labelPosition=left;verticalLabelPosition=middle;align=right;verticalAlign=middle;textDirection=vertical-lr;" parent="1" vertex="1">
          <mxGeometry x="261" y="320" width="119" height="90" as="geometry" />
        </mxCell>
        <mxCell id="_DbBz5vXwKekXFDE-kG2-17" value="AS65000" style="rounded=1;whiteSpace=wrap;html=1;fillColor=#dae8fc;strokeColor=none;labelPosition=left;verticalLabelPosition=middle;align=right;verticalAlign=middle;textDirection=vertical-lr;" parent="1" vertex="1">
          <mxGeometry x="380" y="160" width="120" height="90" as="geometry" />
        </mxCell>
        <mxCell id="_DbBz5vXwKekXFDE-kG2-1" value="r2" style="sketch=0;points=[[0.015,0.015,0],[0.985,0.015,0],[0.985,0.985,0],[0.015,0.985,0],[0.25,0,0],[0.5,0,0],[0.75,0,0],[1,0.25,0],[1,0.5,0],[1,0.75,0],[0.75,1,0],[0.5,1,0],[0.25,1,0],[0,0.75,0],[0,0.5,0],[0,0.25,0]];verticalLabelPosition=bottom;html=1;verticalAlign=top;aspect=fixed;align=center;pointerEvents=1;shape=mxgraph.cisco19.rect;prIcon=l2_switch;fillColor=#FAFAFA;strokeColor=#005073;" parent="1" vertex="1">
          <mxGeometry x="415" y="176" width="50" height="50" as="geometry" />
        </mxCell>
        <mxCell id="_DbBz5vXwKekXFDE-kG2-7" style="rounded=0;orthogonalLoop=1;jettySize=auto;html=1;endArrow=none;endFill=0;" parent="1" source="_DbBz5vXwKekXFDE-kG2-3" target="_DbBz5vXwKekXFDE-kG2-1" edge="1">
          <mxGeometry relative="1" as="geometry" />
        </mxCell>
        <mxCell id="_DbBz5vXwKekXFDE-kG2-3" value="r1" style="sketch=0;points=[[0.015,0.015,0],[0.985,0.015,0],[0.985,0.985,0],[0.015,0.985,0],[0.25,0,0],[0.5,0,0],[0.75,0,0],[1,0.25,0],[1,0.5,0],[1,0.75,0],[0.75,1,0],[0.5,1,0],[0.25,1,0],[0,0.75,0],[0,0.5,0],[0,0.25,0]];verticalLabelPosition=bottom;html=1;verticalAlign=top;aspect=fixed;align=center;pointerEvents=1;shape=mxgraph.cisco19.rect;prIcon=l2_switch;fillColor=#FAFAFA;strokeColor=#005073;" parent="1" vertex="1">
          <mxGeometry x="295" y="336" width="50" height="50" as="geometry" />
        </mxCell>
        <mxCell id="_DbBz5vXwKekXFDE-kG2-14" style="rounded=0;orthogonalLoop=1;jettySize=auto;html=1;endArrow=none;endFill=0;" parent="1" source="_DbBz5vXwKekXFDE-kG2-4" target="_DbBz5vXwKekXFDE-kG2-1" edge="1">
          <mxGeometry relative="1" as="geometry" />
        </mxCell>
        <mxCell id="_DbBz5vXwKekXFDE-kG2-4" value="r3" style="sketch=0;points=[[0.015,0.015,0],[0.985,0.015,0],[0.985,0.985,0],[0.015,0.985,0],[0.25,0,0],[0.5,0,0],[0.75,0,0],[1,0.25,0],[1,0.5,0],[1,0.75,0],[0.75,1,0],[0.5,1,0],[0.25,1,0],[0,0.75,0],[0,0.5,0],[0,0.25,0]];verticalLabelPosition=bottom;html=1;verticalAlign=top;aspect=fixed;align=center;pointerEvents=1;shape=mxgraph.cisco19.rect;prIcon=l2_switch;fillColor=#FAFAFA;strokeColor=#005073;" parent="1" vertex="1">
          <mxGeometry x="536" y="336" width="50" height="50" as="geometry" />
        </mxCell>
        <mxCell id="OTFyuBFAIsrNicnEkzx7-2" value="h1&lt;div&gt;192.168.1.11&lt;/div&gt;" style="sketch=0;outlineConnect=0;fontColor=#232F3E;gradientColor=none;strokeColor=#232F3E;fillColor=#ffffff;dashed=0;verticalLabelPosition=bottom;verticalAlign=top;align=center;html=1;fontSize=12;fontStyle=0;aspect=fixed;shape=mxgraph.aws4.resourceIcon;resIcon=mxgraph.aws4.traditional_server;" vertex="1" parent="1">
          <mxGeometry x="251.5" y="460" width="60" height="60" as="geometry" />
        </mxCell>
        <mxCell id="OTFyuBFAIsrNicnEkzx7-3" value="h2&lt;div&gt;192.168.1.12&lt;/div&gt;" style="sketch=0;outlineConnect=0;fontColor=#232F3E;gradientColor=none;strokeColor=#232F3E;fillColor=#ffffff;dashed=0;verticalLabelPosition=bottom;verticalAlign=top;align=center;html=1;fontSize=12;fontStyle=0;aspect=fixed;shape=mxgraph.aws4.resourceIcon;resIcon=mxgraph.aws4.traditional_server;" vertex="1" parent="1">
          <mxGeometry x="490" y="460" width="60" height="60" as="geometry" />
        </mxCell>
        <mxCell id="OTFyuBFAIsrNicnEkzx7-4" value="h4&lt;div&gt;192.168.4.11&lt;/div&gt;" style="sketch=0;outlineConnect=0;fontColor=#232F3E;gradientColor=none;strokeColor=#232F3E;fillColor=#ffffff;dashed=0;verticalLabelPosition=bottom;verticalAlign=top;align=center;html=1;fontSize=12;fontStyle=0;aspect=fixed;shape=mxgraph.aws4.resourceIcon;resIcon=mxgraph.aws4.traditional_server;" vertex="1" parent="1">
          <mxGeometry x="570" y="460" width="60" height="60" as="geometry" />
        </mxCell>
        <mxCell id="OTFyuBFAIsrNicnEkzx7-7" style="rounded=0;orthogonalLoop=1;jettySize=auto;html=1;entryX=0.25;entryY=1;entryDx=0;entryDy=0;entryPerimeter=0;endArrow=none;endFill=0;" edge="1" parent="1" source="OTFyuBFAIsrNicnEkzx7-2" target="_DbBz5vXwKekXFDE-kG2-3">
          <mxGeometry relative="1" as="geometry" />
        </mxCell>
        <mxCell id="OTFyuBFAIsrNicnEkzx7-8" style="rounded=0;orthogonalLoop=1;jettySize=auto;html=1;entryX=0.25;entryY=1;entryDx=0;entryDy=0;entryPerimeter=0;endArrow=none;endFill=0;" edge="1" parent="1" source="OTFyuBFAIsrNicnEkzx7-3" target="_DbBz5vXwKekXFDE-kG2-4">
          <mxGeometry relative="1" as="geometry" />
        </mxCell>
        <mxCell id="OTFyuBFAIsrNicnEkzx7-9" style="rounded=0;orthogonalLoop=1;jettySize=auto;html=1;entryX=0.75;entryY=1;entryDx=0;entryDy=0;entryPerimeter=0;endArrow=none;endFill=0;" edge="1" parent="1" source="OTFyuBFAIsrNicnEkzx7-4" target="_DbBz5vXwKekXFDE-kG2-4">
          <mxGeometry relative="1" as="geometry" />
        </mxCell>
        <mxCell id="OTFyuBFAIsrNicnEkzx7-15" value="h3&lt;div&gt;192.168.3.11&lt;/div&gt;" style="sketch=0;outlineConnect=0;fontColor=#232F3E;gradientColor=none;strokeColor=#232F3E;fillColor=#ffffff;dashed=0;verticalLabelPosition=bottom;verticalAlign=top;align=center;html=1;fontSize=12;fontStyle=0;aspect=fixed;shape=mxgraph.aws4.resourceIcon;resIcon=mxgraph.aws4.traditional_server;" vertex="1" parent="1">
          <mxGeometry x="330" y="460" width="60" height="60" as="geometry" />
        </mxCell>
        <mxCell id="OTFyuBFAIsrNicnEkzx7-16" style="rounded=0;orthogonalLoop=1;jettySize=auto;html=1;entryX=0.75;entryY=1;entryDx=0;entryDy=0;entryPerimeter=0;endArrow=none;endFill=0;" edge="1" parent="1" source="OTFyuBFAIsrNicnEkzx7-15" target="_DbBz5vXwKekXFDE-kG2-3">
          <mxGeometry relative="1" as="geometry" />
        </mxCell>
      </root>
    </mxGraphModel>
  </diagram>
</mxfile>
